Coordinates
version=1
nRows=5
nColumns=40
inDegrees=yes

Units are S.I. units (second, meters, Newtons, ...)
Angles are in degrees.

endheader
time	pelvis_tilt	pelvis_list	pelvis_rotation	pelvis_tx	pelvis_ty	pelvis_tz	hip_flexion_r	hip_adduction_r	hip_rotation_r	knee_angle_r	knee_angle_r_beta	ankle_angle_r	subtalar_angle_r	mtp_angle_r	hip_flexion_l	hip_adduction_l	hip_rotation_l	knee_angle_l	knee_angle_l_beta	ankle_angle_l	subtalar_angle_l	mtp_angle_l	lumbar_extension	lumbar_bending	lumbar_rotation	arm_flex_r	arm_add_r	arm_rot_r	elbow_flex_r	pro_sup_r	wrist_flex_r	wrist_dev_r	arm_flex_l	arm_add_l	arm_rot_l	elbow_flex_l	pro_sup_l	wrist_flex_l	wrist_dev_l
     15.60750000	     -5.63733491	     -3.31691787	     -3.32607118	      0.99365997	      0.92726032	      0.53392979	     18.00605002	      1.82305007	     -4.00362839	     20.33938542	     20.33938542	     11.01166607	      3.98448627	     -3.63849749	      7.12099398	    -12.41998450	     -9.64178260	     21.09274040	     21.09274040	     15.78911639	     -5.70353613	      2.67822400	     -8.07305067	      6.04273868	      0.13475499	      2.87570592	    -18.74401137	    -11.16953226	     45.82656526	     46.00558474	      0.00000000	      0.00000000	     16.80412836	    -12.61897704	     -1.63001443	     63.14378057	     47.01963363	      0.00000000	      0.00000000
     15.62942857	     -5.56741608	     -3.28483664	     -2.50220551	      0.99365641	      0.92795452	      0.53913497	     17.32939344	      2.01681699	     -4.63837077	     19.86852475	     19.86852475	     11.10023273	      3.87077997	     -3.74820692	      8.32568882	    -13.01130955	     -8.71204660	     23.39438356	     23.39438356	     15.05768604	     -6.06059051	      2.41749649	     -8.07899678	      5.88835233	      0.64539805	      3.32056247	    -20.27278552	    -11.08671370	     48.57882051	     45.88637753	      0.00000000	      0.00000000	     15.57589636	    -11.61942757	      0.14708024	     57.21673919	     46.81503073	      0.00000000	      0.00000000
     15.65135714	     -5.45174736	     -3.25573073	     -1.69642063	      0.99342001	      0.92857984	      0.54413917	     16.66319274	      2.21089672	     -5.29318362	     19.47255635	     19.47255635	     11.23944601	      3.78007486	     -3.71319550	      9.93492360	    -13.58539336	     -7.56859142	     26.50851459	     26.50851459	     14.23825249	     -6.84508050	      1.89003600	     -8.24144916	      5.69478797	      0.29424479	      5.10841518	    -21.34563286	    -11.50986701	     50.02927422	     45.86198366	      0.00000000	      0.00000000	     12.74745045	    -11.31567382	      0.78807145	     54.51031852	     46.70751427	      0.00000000	      0.00000000
     15.67328571	     -5.38561039	     -2.99091108	     -0.89734995	      0.99297176	      0.92907479	      0.54868364	     16.21394723	      2.11059065	     -5.91232074	     19.34979549	     19.34979549	     11.42418943	      3.68465015	     -3.90890866	     11.83460338	    -13.70856303	     -6.06126772	     30.02327944	     30.02327944	     12.97158656	     -8.46981464	      0.91000450	     -8.20264945	      5.32574832	      0.05899935	      6.33043135	    -22.59364071	    -11.35525285	     52.83294758	     45.75478191	      0.00000000	      0.00000000	     11.15982690	    -10.74396438	      1.94340689	     47.91247470	     46.52730082	      0.00000000	      0.00000000
     15.69521429	     -5.29821764	     -2.93190925	     -0.16518766	      0.99242921	      0.92936580	      0.55314124	     15.67070771	      2.25986111	     -6.51740909	     19.07786314	     19.07786314	     11.59040256	      3.62795106	     -4.00655992	     14.09403200	    -14.00373617	     -4.51044533	     34.35073904	     34.35073904	     11.58242659	    -10.31444669	     -0.55652307	     -8.24935132	      5.15837263	      0.87518238	      6.62034746	    -24.36009837	    -11.81340250	     55.81948073	     45.66227536	      0.00000000	      0.00000000	      9.92019783	     -9.84272919	      3.11921328	     42.02586026	     46.34946895	      0.00000000	      0.00000000
